<?xml version="1.0" encoding="utf-8"?>
<!-- Generator: Adobe Illustrator 19.1.0, SVG Export Plug-In . SVG Version: 6.00 Build 0)  -->
<svg version="1.1" id="レイヤー_1" xmlns="http://www.w3.org/2000/svg" xmlns:xlink="http://www.w3.org/1999/xlink" x="0px"
	 y="0px" viewBox="-1316 226 50 50" style="enable-background:new -1316 226 50 50;" xml:space="preserve">
<style type="text/css">
	.st0{fill:#F98495;}
	.st1{fill:#FFFFFF;stroke:#FFFFFF;stroke-width:0.3;stroke-linecap:round;stroke-linejoin:round;stroke-miterlimit:10;}
</style>
<g>
	<circle class="st0" cx="-1291" cy="251" r="24.7"/>
	<g>
		<rect x="-1294.7" y="252" class="st1" width="7.3" height="0.6"/>
		<rect x="-1294.7" y="253.5" class="st1" width="7.3" height="0.6"/>
		<rect x="-1294.7" y="255" class="st1" width="7.3" height="0.6"/>
		<path class="st1" d="M-1286.2,243.2h-7l0,0l0,0l-4,4l0,0l0,0v10.2c0,0.8,0.6,1.4,1.4,1.4h9.6c0.8,0,1.4-0.6,1.4-1.4v-12.8
			C-1284.8,243.8-1285.4,243.2-1286.2,243.2 M-1293.1,243.9v3.1c0,0.2-0.1,0.3-0.3,0.3h-3.1L-1293.1,243.9z M-1285.4,257.4
			c0,0.5-0.4,0.8-0.8,0.8h-9.6c-0.5,0-0.8-0.4-0.8-0.8v-9.6h3.3c0.5,0,0.8-0.4,0.8-0.8v-3.3h6.3c0.5,0,0.8,0.4,0.8,0.8V257.4z"/>
		<rect x="-1294.7" y="250.5" class="st1" width="7.3" height="0.6"/>
		<rect x="-1294.7" y="249" class="st1" width="7.3" height="0.6"/>
	</g>
</g>
</svg>
