<?xml version="1.0" encoding="utf-8"?>
<!-- Generator: Adobe Illustrator 19.1.0, SVG Export Plug-In . SVG Version: 6.00 Build 0)  -->
<svg version="1.1" id="レイヤー_1" xmlns="http://www.w3.org/2000/svg" xmlns:xlink="http://www.w3.org/1999/xlink" x="0px"
	 y="0px" viewBox="0 0 50 50" style="enable-background:new 0 0 50 50;" xml:space="preserve">
<style type="text/css">
	.st0{fill:#2196F3;}
	.st1{fill:#FFFFFF;stroke:#FFFFFF;stroke-width:0.3;stroke-linecap:round;stroke-linejoin:round;stroke-miterlimit:10;}
</style>
<circle class="st0" cx="25" cy="25" r="24.7"/>
<g>
	<rect x="21.3" y="26" class="st1" width="7.3" height="0.6"/>
	<rect x="21.3" y="27.5" class="st1" width="7.3" height="0.6"/>
	<rect x="21.3" y="29" class="st1" width="7.3" height="0.6"/>
	<path class="st1" d="M29.8,17.2h-7v0l0,0l-4,4l0,0h0v10.2c0,0.8,0.6,1.4,1.4,1.4h9.6c0.8,0,1.4-0.6,1.4-1.4V18.6
		C31.2,17.8,30.6,17.2,29.8,17.2 M22.9,17.9V21c0,0.2-0.1,0.3-0.3,0.3h-3.1L22.9,17.9z M30.6,31.4c0,0.5-0.4,0.8-0.8,0.8h-9.6
		c-0.5,0-0.8-0.4-0.8-0.8v-9.6h3.3c0.5,0,0.8-0.4,0.8-0.8v-3.3h6.3c0.5,0,0.8,0.4,0.8,0.8V31.4z"/>
	<rect x="21.3" y="24.5" class="st1" width="7.3" height="0.6"/>
	<rect x="21.3" y="23" class="st1" width="7.3" height="0.6"/>
</g>
</svg>
