<?xml version="1.0" encoding="utf-8"?>
<!-- Generator: Adobe Illustrator 19.1.0, SVG Export Plug-In . SVG Version: 6.00 Build 0)  -->
<svg version="1.1" id="レイヤー_1" xmlns="http://www.w3.org/2000/svg" xmlns:xlink="http://www.w3.org/1999/xlink" x="0px"
	 y="0px" viewBox="-232 339.5 50 50" style="enable-background:new -232 339.5 50 50;" xml:space="preserve">
<style type="text/css">
	.st0{fill:#BBBBBB;}
	.st1{fill:#FFFFFF;stroke:#FFFFFF;stroke-width:0.3;stroke-linecap:round;stroke-linejoin:round;stroke-miterlimit:10;}
</style>
<circle class="st0" cx="-207" cy="364.5" r="24.7"/>
<g>
	<rect x="-210.7" y="365.5" class="st1" width="7.3" height="0.6"/>
	<rect x="-210.7" y="367" class="st1" width="7.3" height="0.6"/>
	<rect x="-210.7" y="368.5" class="st1" width="7.3" height="0.6"/>
	<path class="st1" d="M-202.2,356.7h-7l0,0l0,0l-4,4l0,0l0,0v10.2c0,0.8,0.6,1.4,1.4,1.4h9.6c0.8,0,1.4-0.6,1.4-1.4v-12.8
		C-200.8,357.3-201.4,356.7-202.2,356.7 M-209.1,357.4v3.1c0,0.2-0.1,0.3-0.3,0.3h-3.1L-209.1,357.4z M-201.4,370.9
		c0,0.5-0.4,0.8-0.8,0.8h-9.6c-0.5,0-0.8-0.4-0.8-0.8v-9.6h3.3c0.5,0,0.8-0.4,0.8-0.8v-3.3h6.3c0.5,0,0.8,0.4,0.8,0.8
		C-201.4,358-201.4,370.9-201.4,370.9z"/>
	<rect x="-210.7" y="364" class="st1" width="7.3" height="0.6"/>
	<rect x="-210.7" y="362.5" class="st1" width="7.3" height="0.6"/>
</g>
</svg>
