<?xml version="1.0" encoding="utf-8"?>
<!-- Generator: Adobe Illustrator 19.2.1, SVG Export Plug-In . SVG Version: 6.00 Build 0)  -->
<svg version="1.1" id="レイヤー_1" xmlns="http://www.w3.org/2000/svg" xmlns:xlink="http://www.w3.org/1999/xlink" x="0px"
	 y="0px" viewBox="0 0 20 20" style="enable-background:new 0 0 20 20;" xml:space="preserve">
<style type="text/css">
	.st0{fill:#FFFFFF;}
</style>
<g>
	<path class="st0" d="M17.3,10.5c-0.8,2.8-3.3,5.5-7.9,6c-5.1,0.7-8.3-2.3-9.1-3.6c1.9,1.6,3.3,1.4,4.8,1.2c1.3-0.2,2.4-1.4,2.4-1.4
		c-0.9,0-1.2-0.3-1.3-0.7c-0.1-0.4,0.2-0.8,0.7-1c-1.6,0-2-0.7-2.4-1.2c0.5-0.5,1.3-0.5,1.3-0.5c-2-0.5-2.1-1.8-2.1-1.8
		s0.5-0.1,1.2-0.1C3,6.5,3.2,5.1,3.2,5.1S5,5.8,6.7,6.6c2.1,0.9,2.9,1.9,2.9,1.9c0.2-0.8,0.8-2,1.3-2.7c0.4-0.8,1.5-1.7,1.6-1.8
		c0.1-0.1,0.2-0.1,0.1,0c0,0.1-0.2,0.3-0.2,0.3S12.7,4,13,3.9c0.3-0.1,0.7-0.2,0.7-0.2v0.1c0,0-0.3,0.4-0.4,0.4
		C13.2,4.3,13.8,4,14.4,4s0.3,0.4-0.1,0.6c-0.5,0.2-1,0.3-1.1,0.3c-0.1,0-0.1,0.1,0,0.1c0.1,0,1.6-0.2,2.9,1.2
		c1,1.1,1.1,1.9,1.2,2.1c0,0.1,0,0.3,0.4,0.3c0.2,0,1,0.1,1.3,0c0.3,0,0.5-0.1,0.6-0.2c0.1,0,0.1,0,0,0.1c-0.1,0.1-0.4,0.6-1.1,0.8
		c-0.5,0.1-0.8,0.1-0.9,0.1s0,0.1,0.1,0.1s0.4,0.1,0.9,0.2c0.5,0,1,0,1.1,0s0.1,0,0,0.1s-0.5,0.5-1.1,0.6
		C18,10.4,17.3,10.5,17.3,10.5z"/>
</g>
</svg>
