<?xml version="1.0" encoding="utf-8"?>
<!-- Generator: Adobe Illustrator 19.1.0, SVG Export Plug-In . SVG Version: 6.00 Build 0)  -->
<svg version="1.1" id="レイヤー_1" xmlns="http://www.w3.org/2000/svg" xmlns:xlink="http://www.w3.org/1999/xlink" x="0px"
	 y="0px" viewBox="-1316 226 50 50" style="enable-background:new -1316 226 50 50;" xml:space="preserve">
<style type="text/css">
	.st0{fill:#F98495;}
	.st1{fill:#FFFFFF;}
</style>
<g>
	<circle class="st0" cx="-1291" cy="251" r="24.7"/>
	<path class="st1" d="M-1283.6,251.4c-0.8,2.9-3.3,5.6-7.9,6.2c-5.1,0.7-8.3-2.4-9.2-3.7c1.9,1.6,3.3,1.4,4.8,1.2
		c1.3-0.2,2.4-1.4,2.4-1.4c-0.9,0-1.2-0.3-1.3-0.7c-0.1-0.4,0.2-0.8,0.7-1c-1.6,0-2-0.7-2.4-1.2c0.5-0.5,1.3-0.5,1.3-0.5
		c-2-0.5-2.1-1.9-2.1-1.9s0.5-0.1,1.2-0.1c-1.9-1-1.7-2.4-1.7-2.4s1.9,0.7,3.6,1.5c2.1,0.9,2.9,2,2.9,2c0.2-0.8,0.8-2.1,1.3-2.8
		c0.4-0.8,1.5-1.7,1.6-1.9c0.1-0.1,0.2-0.1,0.1,0c0,0.1-0.2,0.3-0.2,0.3s0.3-0.2,0.6-0.3c0.3-0.1,0.7-0.2,0.7-0.2v0.1
		c0,0-0.3,0.4-0.4,0.4c-0.1,0.1,0.5-0.2,1.1-0.2c0.6,0,0.3,0.4-0.1,0.6c-0.5,0.2-1,0.3-1.1,0.3c-0.1,0-0.1,0.1,0,0.1
		c0.1,0,1.6-0.2,2.9,1.2c1,1.1,1.1,2,1.2,2.2c0,0.1,0,0.3,0.4,0.3c0.2,0,1,0.1,1.3,0c0.3,0,0.5-0.1,0.6-0.2c0.1,0,0.1,0,0,0.1
		c-0.1,0.1-0.4,0.6-1.1,0.8c-0.5,0.1-0.8,0.1-0.9,0.1c-0.1,0,0,0.1,0.1,0.1c0.1,0,0.4,0.1,0.9,0.2c0.5,0,1,0,1.1,0
		c0.1,0,0.1,0,0,0.1c-0.1,0.1-0.5,0.5-1.1,0.6C-1282.9,251.3-1283.6,251.4-1283.6,251.4z"/>
</g>
</svg>
